<svg id="Layer_1" data-name="Layer 1" xmlns="http://www.w3.org/2000/svg" viewBox="0 0 175.44 252.56"><defs><style>.cls-1{fill:#008dc3;}</style></defs><path class="cls-1" d="M79.27,190.72a2.46,2.46,0,0,1-2.7-2.8c0-1.9.7-3.3,2.8-3.3,1.9,0,3,1.4,3.1,5.1a5.53,5.53,0,0,1-3.2,1m.1-8.6c-4,0-6.6,2.5-6.6,5.9s2.3,5.2,5.7,5.2a6.39,6.39,0,0,0,3.9-1.1c-.3,3.1-1.3,4.9-4.6,4.9a3.9,3.9,0,0,1-2.7-.8h-1.4V199a10.08,10.08,0,0,0,3.9.7c5.6,0,8.7-3.3,8.7-9.2,0-5.6-2.9-8.4-6.9-8.4"/><polygon class="cls-1" points="63.17 184.92 63.17 187.42 64.17 187.42 66.17 186.42 66.17 199.62 70.07 199.62 70.07 182.32 67.47 182.32 63.17 184.92"/><path class="cls-1" d="M94.27,188.52a4.56,4.56,0,0,0-3.1.9h-.1v-4h7.7v-3H88.27v10.1h2.3a3.43,3.43,0,0,1,2.7-1.2c1.4,0,2.5.8,2.5,2.8s-1.5,3-3.4,3a4.6,4.6,0,0,1-3.3-1.2h-1.4v2.7a8.65,8.65,0,0,0,4.8,1.2c4.2,0,7.2-2.2,7.2-5.8,0-3.8-2.4-5.5-5.4-5.5"/><polygon class="cls-1" points="100.27 185.32 109.17 185.32 109.17 185.42 102.27 198.12 102.27 199.62 105.97 199.62 111.97 185.62 111.97 182.32 100.27 182.32 100.27 185.32"/><path class="cls-1" d="M87.77,8.52A388,388,0,0,1,11,35.32v135.6c0,42,34.5,76.2,76.8,76.2s76.7-34.2,76.7-76.2V35.32A378.63,378.63,0,0,1,87.77,8.52ZM53,51.62S66.67,43,80.66,45.67a25.86,25.86,0,0,0-10.19-5.45s.56-.07,1.48-.13c-.61-.18-1-.27-1-.27s7.39-1,13.52,1.36c.8-3.65,1.93-7.53,2.88-9.06,0,.09.11.19.16.3.12-.27.23-.5.34-.7,1,1.6,2.3,5.8,3.1,9.6,6.1-2.5,13.9-1.5,13.9-1.5l-.57.16.37,0A25.17,25.17,0,0,0,94,45.92c14.19-3.49,28.68,5.5,28.68,5.5s-.34-.1-1-.23l.75.43a41.41,41.41,0,0,0-23.39,1.05c17.44,4,23.39,19.45,23.39,19.45s-.16-.16-.47-.43c.18.4.27.63.27.63s-10.6-10.2-24.51-12.12c7.32,7.16,7.81,19.92,7.81,19.92s-.12-.27-.36-.73c.05.59.06.93.06.93S99.88,68.38,90.56,63.67c-.09,3.11-.09,6.5-.09,10.45,0,12.7.3,24.1.8,33.1a12.92,12.92,0,0,1,3.6-.9,19.56,19.56,0,0,0-3.1,3.7,18.87,18.87,0,0,1,6.1.1.35.35,0,0,0-.1.2l-.24.11a.16.16,0,0,1-.06.09,89.15,89.15,0,0,0-9.9,4.8,75.49,75.49,0,0,0-10.9-5.1.31.31,0,0,1-.1-.2l.37,0-.07-.15a18.5,18.5,0,0,1,6.2.1,16.16,16.16,0,0,0-2.8-3.2l.61.07-.31-.27a13,13,0,0,1,3.62.89c.49-9,.78-20.33.78-32.89,0-4.1,0-7.6-.1-10.8a21.93,21.93,0,0,0-2.4,1.38c-7.83,5.32-12.3,15.22-12.3,15.22s0-.17,0-.47c-.22.42-.33.67-.33.67s.5-13.1,8.1-20.2c-7.54.9-14.14,4.29-18.68,7.26a48.77,48.77,0,0,0-6.12,4.74l0-.12-.35.32A34.32,34.32,0,0,1,65.44,57.64,32.73,32.73,0,0,1,76.26,53a41.38,41.38,0,0,0-23.59-1.13l.38-.22Zm67.2,161.1h-.1s-4.4-.3-12.9-3.1a22,22,0,0,0-7.1-1.14,16.32,16.32,0,0,0-12.3,5.44l0,0,0,0a16.47,16.47,0,0,0-12.31-5.44,22.18,22.18,0,0,0-7.09,1.14c-8.5,2.8-12.9,3.1-12.9,3.1h-.1l-9.1-41.8h.1a38,38,0,0,0,4,.22c3.65,0,8.76-.69,15.76-3.92a23.6,23.6,0,0,1,10.24-2.36,14,14,0,0,1,5.26,1c2.76,1.19,5,6,6.15,11.28,1.21-5.31,3.39-10.09,6.15-11.28a13.91,13.91,0,0,1,5.24-1,24,24,0,0,1,10.26,2.36c7,3.22,12.15,3.91,15.8,3.92,1.63,0,3-.13,4-.22h.1Zm-25.6-85c-.7.5-1.5,1-2.2,1.5,3.16,2.17,5.63,3.85,7.8,5.33a4.91,4.91,0,0,1,2.75-1.07,1.46,1.46,0,0,1,.75.14,1,1,0,0,1,.4.7,3.54,3.54,0,0,1-.8,2.3c3.63,2.39,5.33,3.58,6.18,4.12a3.51,3.51,0,0,1,2.92-1.32h.2c1.9,0,3.4,1.3,3.3,2.9a2.81,2.81,0,0,1-1.7,2.4,5.21,5.21,0,0,1-2.3.5h-.2l-.37,0-.18,0a4.81,4.81,0,0,1-.65-.08h0c-3.42-.54-7.37-2.79-10.57-4.91a6.22,6.22,0,0,1-3.1,1.43h-.2a1.45,1.45,0,0,1-.7-.2.84.84,0,0,1-.4-.7,4.31,4.31,0,0,1,1-2.7l-.9-.6h.1c-2.27-1.38-4.94-3.06-8.1-5.13-3.15,2.07-5.82,3.75-8,5.13h.1l-.9.6a4.31,4.31,0,0,1,1,2.7c-.1.3-.2.6-.4.7a1.45,1.45,0,0,1-.7.2h-.2a6.26,6.26,0,0,1-3.1-1.43c-3.28,2.12-7.16,4.37-10.56,4.91h-.06c-.21,0-.42.06-.62.07l-.18,0-.38,0h-.2a4.9,4.9,0,0,1-2.3-.5,2.81,2.81,0,0,1-1.7-2.4c-.1-1.6,1.4-2.9,3.3-2.9h.2a3.75,3.75,0,0,1,2.92,1.32c.77-.54,2.56-1.74,6.08-4.12a4.22,4.22,0,0,1-.8-2.3,1,1,0,0,1,.4-.7,1.41,1.41,0,0,1,.73-.14A5,5,0,0,1,75,134.56c2.18-1.49,4.75-3.17,7.8-5.34-.7-.5-1.5-1-2.2-1.5-20-13.6-32.2-14.7-39.5-14.9a33.85,33.85,0,0,1,6.71-.6c7.89-.08,22.17,1.7,38.39,12.8.47.28.94.64,1.4.94.47-.3.94-.66,1.4-.94A73.37,73.37,0,0,1,114.2,113.7c12-2.76,19.87-.88,19.87-.88C126.77,113,114.57,114.12,94.57,127.72Z"/></svg>